<svg xmlns="http://www.w3.org/2000/svg" width="1000" height="500" viewBox="0 0 1000 500" role="img">
<style>
text { fill: #172033; font-family: Arial, sans-serif; }
.titulo { font-size: 22px; font-weight: 700; text-anchor: middle; }
.titulo-panel { font-size: 17px; font-weight: 600; text-anchor: middle; }
.eje { stroke: #334155; stroke-width: 1.5; }
.rejilla { stroke: #dbe3ee; stroke-width: 1; }
.marca-y { font-size: 11px; text-anchor: end; }
.marca-x { font-size: 12px; text-anchor: middle; }
.etiqueta { font-size: 13px; text-anchor: middle; }
.ideal { fill: none; stroke: #64748b; stroke-width: 2; stroke-dasharray: 7 5; }
.datos { fill: none; stroke: #2563eb; stroke-width: 3; }
.punto { fill: #2563eb; stroke: white; stroke-width: 2; }
.valor { font-size: 11px; font-weight: 600; text-anchor: middle; }
.leyenda { font-size: 12px; }
</style>
<rect width="1000" height="500" fill="white"/>
<text x="500.0" y="35" class="titulo">Resultados de OpenMP — Dulce_Ambrosio</text>
<text x="265.0" y="78.0" class="titulo-panel">Speedup observado</text>
<line x1="80.0" y1="400.0" x2="450.0" y2="400.0" class="rejilla"/>
<text x="70.0" y="405.0" class="marca-y">0.0</text>
<line x1="80.0" y1="340.0" x2="450.0" y2="340.0" class="rejilla"/>
<text x="70.0" y="345.0" class="marca-y">4.4</text>
<line x1="80.0" y1="280.0" x2="450.0" y2="280.0" class="rejilla"/>
<text x="70.0" y="285.0" class="marca-y">8.8</text>
<line x1="80.0" y1="220.0" x2="450.0" y2="220.0" class="rejilla"/>
<text x="70.0" y="225.0" class="marca-y">13.2</text>
<line x1="80.0" y1="160.0" x2="450.0" y2="160.0" class="rejilla"/>
<text x="70.0" y="165.0" class="marca-y">17.6</text>
<line x1="80.0" y1="100.0" x2="450.0" y2="100.0" class="rejilla"/>
<text x="70.0" y="105.0" class="marca-y">22.0</text>
<line x1="80.0" y1="400.0" x2="450.0" y2="400.0" class="eje"/>
<line x1="80.0" y1="100.0" x2="80.0" y2="400.0" class="eje"/>
<text x="98.5" y="424.0" class="marca-x">1</text>
<text x="117.0" y="424.0" class="marca-x">2</text>
<text x="154.0" y="424.0" class="marca-x">4</text>
<text x="228.0" y="424.0" class="marca-x">8</text>
<text x="376.0" y="424.0" class="marca-x">16</text>
<text x="450.0" y="424.0" class="marca-x">20</text>
<polyline points="80.0,400.0 450.0,127.3" class="ideal"/>
<polyline points="98.5,386.3 117.0,373.5 154.0,346.7 228.0,312.6 376.0,282.7 450.0,277.0" class="datos"/>
<circle cx="98.5" cy="386.3" r="5" class="punto"/>
<text x="98.5" y="376.3" class="valor">1.00</text>
<circle cx="117.0" cy="373.5" r="5" class="punto"/>
<text x="117.0" y="363.5" class="valor">1.94</text>
<circle cx="154.0" cy="346.7" r="5" class="punto"/>
<text x="154.0" y="336.7" class="valor">3.91</text>
<circle cx="228.0" cy="312.6" r="5" class="punto"/>
<text x="228.0" y="302.6" class="valor">6.41</text>
<circle cx="376.0" cy="282.7" r="5" class="punto"/>
<text x="376.0" y="272.7" class="valor">8.60</text>
<circle cx="450.0" cy="277.0" r="5" class="punto"/>
<text x="450.0" y="267.0" class="valor">9.02</text>
<text x="265.0" y="450.0" class="etiqueta">Hilos</text>
<text x="26.0" y="250.0" class="etiqueta etiqueta-y" transform="rotate(-90 26.0 250.0)">Speedup</text>
<text x="765.0" y="78.0" class="titulo-panel">Eficiencia paralela</text>
<line x1="580.0" y1="400.0" x2="950.0" y2="400.0" class="rejilla"/>
<text x="570.0" y="405.0" class="marca-y">0.0</text>
<line x1="580.0" y1="340.0" x2="950.0" y2="340.0" class="rejilla"/>
<text x="570.0" y="345.0" class="marca-y">22.0</text>
<line x1="580.0" y1="280.0" x2="950.0" y2="280.0" class="rejilla"/>
<text x="570.0" y="285.0" class="marca-y">44.0</text>
<line x1="580.0" y1="220.0" x2="950.0" y2="220.0" class="rejilla"/>
<text x="570.0" y="225.0" class="marca-y">66.0</text>
<line x1="580.0" y1="160.0" x2="950.0" y2="160.0" class="rejilla"/>
<text x="570.0" y="165.0" class="marca-y">88.0</text>
<line x1="580.0" y1="100.0" x2="950.0" y2="100.0" class="rejilla"/>
<text x="570.0" y="105.0" class="marca-y">110.0</text>
<line x1="580.0" y1="400.0" x2="950.0" y2="400.0" class="eje"/>
<line x1="580.0" y1="100.0" x2="580.0" y2="400.0" class="eje"/>
<text x="598.5" y="424.0" class="marca-x">1</text>
<text x="617.0" y="424.0" class="marca-x">2</text>
<text x="654.0" y="424.0" class="marca-x">4</text>
<text x="728.0" y="424.0" class="marca-x">8</text>
<text x="876.0" y="424.0" class="marca-x">16</text>
<text x="950.0" y="424.0" class="marca-x">20</text>
<polyline points="580.0,127.3 950.0,127.3" class="ideal"/>
<polyline points="598.5,126.9 617.0,134.8 654.0,133.4 728.0,181.6 876.0,253.4 950.0,277.0" class="datos"/>
<circle cx="598.5" cy="126.9" r="5" class="punto"/>
<text x="598.5" y="116.9" class="valor">100.12</text>
<circle cx="617.0" cy="134.8" r="5" class="punto"/>
<text x="617.0" y="124.8" class="valor">97.24</text>
<circle cx="654.0" cy="133.4" r="5" class="punto"/>
<text x="654.0" y="123.4" class="valor">97.74</text>
<circle cx="728.0" cy="181.6" r="5" class="punto"/>
<text x="728.0" y="171.6" class="valor">80.08</text>
<circle cx="876.0" cy="253.4" r="5" class="punto"/>
<text x="876.0" y="243.4" class="valor">53.77</text>
<circle cx="950.0" cy="277.0" r="5" class="punto"/>
<text x="950.0" y="267.0" class="valor">45.10</text>
<text x="765.0" y="450.0" class="etiqueta">Hilos</text>
<text x="526.0" y="250.0" class="etiqueta etiqueta-y" transform="rotate(-90 526.0 250.0)">Eficiencia (%)</text>
<line x1="350" y1="470" x2="385" y2="470" class="datos"/>
<text x="395" y="474" class="leyenda">Medición</text>
<line x1="510" y1="470" x2="545" y2="470" class="ideal"/>
<text x="555" y="474" class="leyenda">Ideal</text>
</svg>